<svg height="650" viewBox="0 0 1440 650" width="1440" xmlns="http://www.w3.org/2000/svg" xmlns:xlink="http://www.w3.org/1999/xlink"><defs><path id="a" d="m0-374h1440v1024h-1440z"/><mask id="b" fill="#fff"><use fill="#fff" fill-rule="evenodd" xlink:href="#a"/></mask><mask id="c" fill="#fff"><path d="m.065.096h6.882v7.781h-6.882z" fill="#fff" fill-rule="evenodd"/></mask><mask id="d" fill="#fff"><path d="m0 .026h7.897v7.889h-7.897z" fill="#fff" fill-rule="evenodd"/></mask></defs><g fill="none" fill-rule="evenodd"><use fill="#f3fbff" xlink:href="#a"/><g mask="url(#b)"><g transform="translate(-106 77)"><g opacity=".45" transform="translate(0 117)"><path d="m167 321.500068c0 2.485297-1.343156 4.499932-2.999934 4.499932-1.65691 0-3.000066-2.014635-3.000066-4.499932s1.343156-4.500068 3.000066-4.500068c1.656778 0 2.999934 2.014771 2.999934 4.500068m87.144123 5.502155c1.654875.06823 2.93191 1.689669 2.852353 3.62141-.079558 1.931621-1.485724 3.442488-3.140599 3.374136-1.654875-.06823-2.93191-1.689669-2.852353-3.621289.079679-1.931742 1.485724-3.442487 3.140599-3.374257m37.259759-43.671651c-.990972 2.082685-2.870597 3.175293-4.198349 2.440522-1.327633-.734899-1.60048-3.018931-.609509-5.101616.991091-2.082684 2.870716-3.175421 4.198468-2.440522 1.327633.7349 1.60048 3.018932.60939 5.101616m-1.403882-175.830504c0 2.485297-1.343156 4.499932-2.999934 4.499932-1.65691 0-3.000066-2.014635-3.000066-4.499932s1.343156-4.500068 3.000066-4.500068c1.656778 0 2.999934 2.014771 2.999934 4.500068m41 49.499932c0 1.65687-1.567032 3-3.49994 3-1.933028 0-3.50006-1.34313-3.50006-3s1.567032-3 3.50006-3c1.932908 0 3.49994 1.34313 3.49994 3" fill="#bce8f1"/><g fill="#d9edf7"><path d="m203.403882 447.330662c-.990972 2.082586-2.870597 3.175209-4.198349 2.440428-1.327633-.73491-1.60048-3.018974-.609509-5.101688.991091-2.082714 2.870716-3.175337 4.198468-2.440428 1.327633.73491 1.60048 3.018974.60939 5.101688m145.596118-132.830662c0 2.485335-1.343156 4.5-2.999934 4.5-1.65691 0-3.000066-2.014665-3.000066-4.5s1.343156-4.5 3.000066-4.5c1.656778 0 2.999934 2.014665 2.999934 4.5m23 24.5c0 1.65687-1.567032 3-3.49994 3-1.933028 0-3.50006-1.34313-3.50006-3s1.567032-3 3.50006-3c1.932908 0 3.49994 1.34313 3.49994 3m-30.596118-94.669338c-.990972 2.082586-2.870597 3.175209-4.198349 2.440428-1.327633-.73491-1.60048-3.018974-.609509-5.101688.991091-2.082714 2.870716-3.175337 4.198468-2.440428 1.327633.73491 1.60048 3.018974.60939 5.101688m-160.403882 85.169338c0 2.485335-1.343156 4.5-2.999934 4.5-1.65691 0-3.000066-2.014665-3.000066-4.5s1.343156-4.5 3.000066-4.5c1.656778 0 2.999934 2.014665 2.999934 4.5m67-21.5c0 1.65687-1.567032 3-3.49994 3-1.933028 0-3.50006-1.34313-3.50006-3s1.567032-3 3.50006-3c1.932908 0 3.49994 1.34313 3.49994 3m38.403882 2.330662c-.990972 2.082586-2.870597 3.175209-4.198349 2.440428-1.327633-.73491-1.60048-3.018974-.609509-5.101688.991091-2.082714 2.870716-3.175337 4.198468-2.440428 1.327633.73491 1.60048 3.018974.60939 5.101688m-24.403882-207.830662c0 2.485335-1.343156 4.5-2.999934 4.5-1.65691 0-3.000066-2.014665-3.000066-4.5s1.343156-4.5 3.000066-4.5c1.656778 0 2.999934 2.014665 2.999934 4.5m93 51.5c0 1.65687-1.567032 3-3.49994 3-1.933028 0-3.50006-1.34313-3.50006-3s1.567032-3 3.50006-3c1.932908 0 3.49994 1.34313 3.49994 3"/><path d="m262 102.5c0 2.485335-1.343156 4.5-2.999934 4.5-1.65691 0-3.000066-2.014665-3.000066-4.5s1.343156-4.5 3.000066-4.5c1.656778 0 2.999934 2.014665 2.999934 4.5"/><path d="m262 102.5c0 2.485335-1.343156 4.5-2.999934 4.5-1.65691 0-3.000066-2.014665-3.000066-4.5s1.343156-4.5 3.000066-4.5c1.656778 0 2.999934 2.014665 2.999934 4.5"/><path d="m262 102.5c0 2.485335-1.343156 4.5-2.999934 4.5-1.65691 0-3.000066-2.014665-3.000066-4.5s1.343156-4.5 3.000066-4.5c1.656778 0 2.999934 2.014665 2.999934 4.5"/><path d="m262 102.5c0 2.485335-1.343156 4.5-2.999934 4.5-1.65691 0-3.000066-2.014665-3.000066-4.5s1.343156-4.5 3.000066-4.5c1.656778 0 2.999934 2.014665 2.999934 4.5"/></g><path d="m1.21111455 5.80347541c-1.41629091-1.89940984-1.53707273-4.25259016-.26969091-5.25613115 1.26750909-1.00340983 3.44285454-.27672131 4.85927272 1.62255738 1.41616364 1.89967213 1.53694546 4.25285246.26956364 5.25626229-1.26738182 1.00327869-3.44285455.27672132-4.85914545-1.62268852" fill="#bce8f1" mask="url(#c)" transform="translate(407 25)"/><path d="m371.577306 31.8361058c-1.06316-1.4394099-.616218-3.6522557.997948-4.9423316 1.614165-1.2900759 3.784557-1.1693632 4.847591.2700467 1.062906 1.4395423.616091 3.6522557-.998075 4.9424641-1.614165 1.2900759-3.78443 1.1692307-4.847464-.2701792m12.524297 45.2254245c-.425957-2.4653312.526387-4.7156235 2.127191-5.0258998 1.600674-.3100018 3.243594 1.4372065 3.669551 3.9028121.426086 2.4656057-.526258 4.7157607-2.127192 5.0258998-1.600674.310139-3.243594-1.4372065-3.66955-3.9028121m10.058519 299.1851807c1.701436.711477 2.337165 2.744852 1.420303 4.541564-.916863 1.796711-3.039382 2.67649-4.74068 1.965014-1.701299-.711477-2.337028-2.744729-1.420166-4.541564.916863-1.796711 3.039245-2.67649 4.740543-1.965014m-15.34967-91.404291c1.451935 1.701958 1.594496 3.823815.318667 4.739453-1.276216.915401-3.487532.277685-4.939467-1.424155-1.451934-1.702076-1.594754-3.824051-.318667-4.739571 1.275958-.915401 3.487533-.277803 4.939467 1.424273m-120.650314-33.595709c1.701421.711477 2.337145 2.744852 1.42029 4.541564-.916991 1.796711-3.039492 2.67649-4.740638 1.965014-1.701284-.711477-2.337145-2.744852-1.420154-4.541564.916855-1.796711 3.039219-2.67649 4.740502-1.965014m-118.949601-143.736528c2.104926.923865 3.269294 2.78764 2.600785 4.162884-.668635 1.375002-2.917013 1.740737-5.021811.81675-2.104926-.923986-3.269421-2.78776-2.600786-4.162884.668509-1.375002 2.916886-1.740737 5.021812-.81675m43.949662-22.2634758c1.701294.7114645 2.337159 2.7448039 1.420162 4.5414839-.91686 1.7968039-3.039375 2.6765678-4.740532 1.9651033-1.701432-.7114645-2.33716-2.7448039-1.420163-4.5416078.916724-1.79668 3.039101-2.6764439 4.740533-1.9649794m-43.349802-31.404287c1.451938 1.7019578 1.594629 3.8238147.318667 4.7394527-1.276219.9154013-3.487542.2776847-4.939481-1.4241548-1.451939-1.7020761-1.59463-3.8240514-.318539-4.739571 1.275962-.9154013 3.487414-.277803 4.939353 1.4242731" fill="#bce8f1"/><path d="m408.210485 299.510118c2.104929.923977 3.269426 2.787732 2.600789 4.162962-.668509 1.374989-2.91689 1.74072-5.021692.816743-2.104929-.923977-3.269426-2.787733-2.600916-4.162842.668636-1.375109 2.917017-1.740719 5.021819-.816863m32.949637-9.263408c1.701436.711471 2.337165 2.744832 1.420303 4.54153-.916863 1.796698-3.039382 2.676595-4.74068 1.964999-1.701299-.711472-2.337028-2.744832-1.420166-4.54153.916863-1.796698 3.039245-2.676471 4.740543-1.964999m-28.349634-22.40429c1.451916 1.701958 1.594476 3.823815.318534 4.739453-1.276071.915401-3.48736.277685-4.939405-1.424155-1.451917-1.702194-1.594734-3.824051-.318534-4.739571 1.275942-.915401 3.487359-.277803 4.939405 1.424273m-5.650252 108.404286c1.701428.711464 2.337018 2.744804 1.420159 4.541607-.916858 1.79668-3.039368 2.676444-4.740658 1.96498-1.701291-.711465-2.337018-2.744804-1.42016-4.541484.916859-1.796804 3.039231-2.676568 4.740659-1.965103m-28.349763-23.404302c1.451934 1.701942 1.594495 3.82378.318538 4.739528-1.276087.915275-3.487402.277683-4.939336-1.42426-1.452063-1.702061-1.594753-3.824017-.318538-4.739529 1.275829-.915393 3.487402-.2778 4.939336 1.424261m-201.599952-62.332221c2.104938.923865 3.269313 2.78764 2.6008 4.162884-.668512 1.375002-2.916903 1.740737-5.021842.81675-2.104938-.923986-3.269313-2.78776-2.6008-4.162884.668512-1.375002 2.916903-1.740737 5.021842-.81675m89.949742-63.263477c1.701291.711466 2.337018 2.744811 1.42016 4.541495-.916859 1.796685-3.039368 2.676575-4.740659 1.965109-1.701428-.711591-2.337018-2.744935-1.420159-4.541496.916858-1.796808 3.039231-2.676574 4.740658-1.965108m137.050349-171.7365229c2.104802.9239873 3.269298 2.7876431 2.600661 4.1627678-.668509 1.3751246-2.916763 1.7408595-5.021691.8168723-2.104929-.9239873-3.269426-2.7877637-2.600916-4.1628884.668636-1.3750041 2.917017-1.740739 5.021946-.8167517" fill="#d9edf7"/><path d="m177.210521 290.510183c2.104938.923865 3.269313 2.78764 2.6008 4.162884-.668512 1.375002-2.916903 1.740737-5.021842.81675-2.104938-.923986-3.269313-2.78776-2.6008-4.162884.668512-1.375002 2.916903-1.740737 5.021842-.81675" fill="#d9edf7"/><path d="m177.210521 290.510183c2.104938.923865 3.269313 2.78764 2.6008 4.162884-.668512 1.375002-2.916903 1.740737-5.021842.81675-2.104938-.923986-3.269313-2.78776-2.6008-4.162884.668512-1.375002 2.916903-1.740737 5.021842-.81675" fill="#d9edf7"/><path d="m177.210521 290.510183c2.104938.923865 3.269313 2.78764 2.6008 4.162884-.668512 1.375002-2.916903 1.740737-5.021842.81675-2.104938-.923986-3.269313-2.78776-2.6008-4.162884.668512-1.375002 2.916903-1.740737 5.021842-.81675" fill="#d9edf7"/><path d="m177.210521 290.510183c2.104938.923865 3.269313 2.78764 2.6008 4.162884-.668512 1.375002-2.916903 1.740737-5.021842.81675-2.104938-.923986-3.269313-2.78776-2.6008-4.162884.668512-1.375002 2.916903-1.740737 5.021842-.81675m-7.000067-226.0000547c2.105071.9239841 3.269449 2.787754 2.600808 4.1629946-.668515 1.3749992-2.916911 1.7406123-5.021728.8167488-2.104944-.9239841-3.269448-2.787754-2.600807-4.1629946.668514-1.3749992 2.916911-1.7406123 5.021727-.8167488" fill="#d9edf7"/><g transform="translate(464)"><path d="m55.6146684 421.643845c1.00462-2.07764 2.8869942-3.154734 4.2044548-2.405803 1.3174606.74906 1.5708366 3.040423.5662167 5.118062-1.0047385 2.077639-2.8871127 3.154863-4.2045733 2.405803-1.3173421-.748932-1.5707181-3.040423-.5660982-5.118062m-18.3062991-32.969952c.7921662-1.648695 2.8634298-2.167683 4.6259716-1.159196 1.7626663 1.008622 2.5494775 3.162716 1.7573113 4.81141-.7921662 1.648695-2.8633053 2.167683-4.6260961 1.159196-1.7626663-1.008622-2.549353-3.162716-1.7571868-4.81141m-35.051507 29.381545c1.98765844-1.383384 4.37947807-1.410344 5.34235621-.060233.96261189 1.350112.1317917 3.565973-1.85599986 4.949357-1.98765843 1.383384-4.37961119 1.410344-5.3423562.060233-.96274501-1.350112-.13192482-3.565973 1.85599985-4.949357" fill="#bce8f1"/><path d="m31 21.5c0 2.4853346-1.3431556 4.5-2.999934 4.5-1.6569104 0-3.000066-2.0146654-3.000066-4.5s1.3431556-4.5 3.000066-4.5c1.6567784 0 2.999934 2.0146654 2.999934 4.5m33 14.5c0 1.6568699-1.5670324 3-3.4999395 3-1.9330281 0-3.5000605-1.3431301-3.5000605-3s1.5670324-3 3.5000605-3c1.9329071 0 3.4999395 1.3431301 3.4999395 3m10.4038817-30.66933812c-.9909714 2.08258566-2.8705967 3.17520937-4.1983486 2.44042793-1.3276332-.7349096-1.6004801-3.01897379-.6095086-5.10168761.9910902-2.08271383 2.8707154-3.17533754 4.1984674-2.44042794 1.3276331.73490961 1.60048 3.01897379.6093898 5.10168762m-43.4038817 423.16933812c0 2.485335-1.3431556 4.5-2.999934 4.5-1.6569104 0-3.000066-2.014665-3.000066-4.5s1.3431556-4.5 3.000066-4.5c1.6567784 0 2.999934 2.014665 2.999934 4.5m30-416c0 2.4853346-1.3431556 4.5-2.999934 4.5-1.6569104 0-3.000066-2.0146654-3.000066-4.5s1.3431556-4.5 3.000066-4.5c1.6567784 0 2.999934 2.0146654 2.999934 4.5m33.969374 33.8876573c2.1339377-.8139523 4.3252717-.3045081 4.8945974 1.138301.5690756 1.4428091-.6994072 3.2723226-2.8334702 4.0862749-2.1339377.8141988-4.3251463.3045081-4.8944721-1.138301-.5690751-1.442809.6994072-3.2723225 2.8333449-4.0862749" fill="#d9edf7"/></g></g><path d="m0 45.6331653s.48032181-.2933453 1.42580169-.8708859c.94780226-.5731705 2.36185546-1.4283512 4.2272691-2.5563922.466934-.2807812.96214633-.5784966 1.48536378-.8930097.53141406-.3072751 1.1023085-.6227442 1.6965633-.9589715 1.19315433-.6709522 2.50078813-1.4063639 3.92098883-2.205006.3557332-.1999337.7187068-.4038278 1.0885108-.6116823.185107-.1040638.3719899-.2090836.5605121-.3149228.188249-.1076146.3793668-.2122247.5737633-.3115087.7760831-.4060128 1.5804445-.8269114 2.4128111-1.2622861.8333228-.4359209 1.6947873-.8864545 2.5841204-1.3514641.4450763-.2327097.8972564-.4691067 1.3561304-.7090544.4594204-.239538.9237589-.4878162 1.4043539-.7177946 1.9137737-.9406715 3.9414803-1.938701 6.0881746-2.9779736 1.0676095-.5343855 2.1876773-1.0206996 3.3263241-1.5453889 1.1423354-.5178609 2.312266-1.048286 3.5096552-1.5911387.5997193-.2709483 1.206269-.5450377 1.8196492-.8222681.6196643-.2616619 1.2460226-.5261916 1.8794845-.7935892 1.2688365-.5338392 2.5651316-1.0792867 3.8887488-1.6362057.663243-.277367 1.3331799-.5574653 2.0099473-.8404315.6830515-.2661685 1.3729335-.5350684 2.0696461-.806563 1.3956108-.5427161 2.8185436-1.0960844 4.2685254-1.6601049 1.4473861-.577404 2.9461377-1.090212 4.465654-1.6388005 1.5222486-.5442183 3.0718192-1.0982695 4.6481655-1.6618803 1.5867286-.5315176 3.2077464-1.0521099 4.8543103-1.5926409 1.6479301-.5345221 3.318674-1.1014105 5.0379146-1.5964648 1.7173281-.5100767 3.4614318-1.0280742 5.2321745-1.5541292.8842785-.2714946 1.7845403-.5058431 2.6899934-.750434.9061361-.2439082 1.8188295-.4897282 2.7382168-.7373237.9203436-.2475954 1.8472445-.4968297 2.7808393-.74797584.2336036-.06241099.467617-.12509511.7021769-.18777923.2348331-.06036248.4714422-.11430633.7079146-.17207405.4732181-.11348693.9480755-.22752013 1.4245722-.34182647 1.9085825-.45749847 3.843804-.92141558 5.805118-1.39134162 1.9700572-.43073139 3.970715-.85531729 5.9995145-1.28468302.5072341-.10679516 1.0163807-.2141366 1.5270295-.32161459.255325-.05380729.511333-.10761457.767477-.16155842.257237-.04766178.514884-.09546013.772941-.14339504 1.032774-.19119339 2.072105-.38388902 3.117857-.57767718 4.180275-.81694204 8.496204-1.46740927 12.921422-2.14013688 2.218961-.29252588 4.463741-.58819281 6.734068-.88741046.284149-.03728272.568572-.07456543.853541-.1119847.285379-.03113721.571304-.06213786.857366-.09327507.572807-.06063561 1.147117-.12154437 1.723203-.18245312 1.152717-.12004213 2.311856-.2407671 3.477551-.36203834.583053-.06049905 1.167882-.12127124 1.754213-.18204342l.440159-.04547672.441387-.03523421c.294396-.02348947.589201-.04697894.884552-.07060498 1.181679-.0939579 2.369642-.18846206 3.564026-.28337592 1.194931-.09163626 2.396418-.1969292 3.605283-.27818639 1.20982-.06473262 2.425789-.12973837 3.648041-.19501726 19.55795-1.06112332 40.910686-.40082328 63.472697 2.85083003 11.27759 1.62391472 22.849439 3.89952578 34.613771 6.9068613.73551.187506 1.472386.3755584 2.210491.5637473.737833.1905106 1.480309.3695495 2.21418.5831399 1.472249.4144799 2.949553.8303255 4.432048 1.2475368.741384.2093568 1.484271.4189867 2.228387.6290263l.55819.1584174.554774.1705718c.370078.1137601.740565.2276567 1.111325.3415533 1.482905.4574985 2.971274.9166358 4.464425 1.3772753.373356.115672.746985.2314806 1.120887.3472891l.561332.1738494.55737.1864136c.743433.2493708 1.488232.4991513 2.234261.7493415 1.492468.5013364 2.98999 1.0044482 4.492567 1.5090621l.563244.1910569.559282.2033478c.372947.1356107.746302.271358 1.119932.4071054.747395.2720408 1.495882.5444914 2.2456.8172151.750127.27327 1.501347.5468131 2.253796.8209025.751494.2765476 1.509408.5408042 2.25448.8409778 12.007226 4.590963 24.077839 9.9944979 36.073452 16.2607248.756138.3796554 1.497386.7894921 2.242732 1.1944124.745209.4054666 1.491648.8114794 2.239042 1.2179019.747395.4069688 1.49602.8144838 2.245464 1.2226817.749717.4079248 1.502986.8127085 2.240819 1.2464444 1.482905.8561367 2.969908 1.7147316 4.461146 2.5756481.372673.2156388.745755.4312776 1.118975.647053.372536.2172777.749444.427727 1.115833.6562031.737285.4497141 1.475527.8999746 2.214862 1.3507813 1.478124.9037985 2.960209 1.8100551 4.446392 2.7189066 1.46419.9443588 2.932204 1.8913123 4.40418 2.8407241.735783.4756618 1.472522.9520065 2.210354 1.4288974.183741.1201787.370078.2369433.552179.3598533l.545212.3709152c.363657.2473223.727586.4949177 1.091653.7426497 1.455173.9939325 2.913898 1.9903232 4.376447 2.9894453.736466.4930058 1.452578 1.0160563 2.174017 1.5340538.721165.5184072 1.443287 1.0376338 2.166229 1.5574067.722942.5203192 1.44684 1.0413212 2.171557 1.5628694.362018.2615253.724172.5231871 1.086599.7849855l1.069522.8107965c1.426348 1.0827009 2.856521 2.1682696 4.290246 3.2565697l1.075806.8173518c.360788.2701289.707232.5589675 1.061736.8379733.705319.562928 1.411457 1.1265388 2.118689 1.690969 5.685994 4.4810268 11.20546 9.2833951 16.696237 14.2209644 1.350666 1.2587354 2.704474 2.5206117 4.061424 3.7852194.675538.6357181 1.361186 1.2625593 2.030303 1.9081101.663653.6510135 1.328125 1.3028464 1.993554 1.9552255 1.329081 1.3069434 2.665813 2.6126577 3.993529 3.9333944 1.302306 1.3457283 2.60789 2.6945975 3.916071 4.0464715.652314.677507 1.310775 1.351328 1.960221 2.034707.638243.693896 1.277169 1.388611 1.916915 2.084008 1.277443 1.392981 2.557618 2.789102 3.840799 4.188228 1.248208 1.4304 2.499149 2.863804 3.752822 4.300349.625401.719707 1.25135 1.440096 1.878118 2.161305.609692.735548 1.219793 1.472052 1.830851 2.209103 1.219657 1.476559 2.441636 2.95626 3.666347 4.438964 1.187964 1.51234 2.378386 3.027684 3.571267 4.546306.594255.761223 1.195886 1.517939 1.785087 2.285444.577998.775699 1.156816 1.552354 1.73618 2.329691 1.15422 1.557953 2.321692 3.111536 3.469628 4.683829 1.119385 1.592777 2.241092 3.188696 3.364849 4.787892.557916.802329 1.129767 1.596465 1.676618 2.408627.541386.815713 1.083183 1.632382 1.625526 2.449734.541386.818034 1.083319 1.637025 1.625526 2.456698l.813377 1.230603c.269259.411612.547534.817898.803952 1.23825 1.0422 1.670757 2.086586 3.344792 3.132747 5.021968l.78346 1.259418c.260789.420215.52513.838656.771712 1.268022.501223.853678 1.003129 1.708039 1.505172 2.563493.501087.856 1.002447 1.71282 1.504353 2.570322l.752449 1.287278.375815.644595c.124042.215502.241118.435101.362154.652379.959005 1.74423 1.919512 3.491601 2.881931 5.242113l.7198 1.314455.359558.657978.343848.666719c.458055.889186.916519 1.779327 1.375393 2.670152.457644.891234.915835 1.783288 1.374436 2.676161l.68633 1.340539c.158195.313967.1306.245001.441388.873344l.309559.644322c.82335 1.719648 1.64834 3.4423 2.474695 5.167821.100682.20403.213796.465965.320761.700587l.32527.721892.649991 1.445148c.431416.964435.863104 1.929688 1.295339 2.895761l.32322.724896c.107512.241586.21844.484948.313248.719843l.591659 1.422616c.393574.948865.787695 1.89855 1.181952 2.849054 3.110617 7.621378 5.88968 15.437228 8.307955 23.413406.293303.999669.587015 2.000293.880727 3.0016l.440022 1.502234.219806.751526c.07336.2506.1362.504341.204369.75658.533463 2.019958 1.067882 4.043194 1.603122 6.069571.481551 2.038804.963922 4.081023 1.446976 6.126246.059152.255789.12213.510759.178003.767504l.162157.771602.3224 1.544297c.213658 1.029713.427317 2.060245.641385 3.091597 1.641919 8.263788 2.894909 16.647755 3.739161 25.109291.104507 1.057436.209287 2.115555.31393 3.174493.080464 1.060987.160927 2.122793.241527 3.185419.077185 1.061943.154506 2.124841.231828 3.188423.043579.531108.062704 1.064537.089753 1.597421l.076775 1.599059c.050546 1.065767.101091 2.132353.151774 3.199622l.037704.800281c.011476.266714.014071.534248.021585.801373l.037704 1.603566c.023907 1.068908.047677 2.138362.071721 3.208772.00724.535068.024968 1.06959.024968 1.605478l-.006389 1.607253c.037158 17.141717-1.601073 34.411123-4.9136 51.450415-1.649706 8.52067-3.709789 16.985621-6.177381 25.352107-.641248 2.082916-1.283454 4.168289-1.926205 6.255848-.691385 2.069532-1.383726 4.141385-2.07675 6.215424-.739744 2.055465-1.480446 4.112843-2.22183 6.172542-.789334 2.039487-1.579625 4.081023-2.370598 6.124744-6.512896 16.267416-14.576729 31.99198-24.064587 46.886628-9.483214 14.897653-20.388268 28.966755-32.546584 41.952746-12.157224 12.986675-25.57823 24.88027-40.047036 35.457498-7.233243 5.290048-14.72946 10.249195-22.453952 14.859687-.969114.570166-1.9385 1.140468-2.90816 1.711044l-1.45408.856683c-.488929.278732-.982775.548452-1.474025.823224-.983185.547769-1.966642 1.095948-2.950373 1.644127l-1.475528.822814c-.49248.273133-.995069.527694-1.492331.792497-.996982.524825-1.9941 1.049515-2.991765 1.574477l-1.496566.787444c-.235243.126734-.63032.325711-.814334.41407l-.740974.366955c-.98742.490001-1.975112.980276-2.963078 1.470687l-.740974.367774-.781957.364906-1.565691.729266-1.566374.728993-.782913.365453c-.261199.124002-.521988.242406-.782094.353434-1.041381.454768-2.083171.909671-3.125098 1.364575l-1.563641.681604-1.580171.643503c-1.053402.430322-2.106941.86078-3.160753 1.291238-1.058047.41967-2.127022.812709-3.190807 1.22036l-1.597794.606356c-.530457.208265-1.068565.395497-1.606264.584506-1.074986.379109-2.150246.758218-3.225779 1.137464l-.80682.284332c-.269396.093548-.541933.17781-.812695.267124l-1.627575.529606-1.627575.530835c-.543982.173303-1.082773.362858-1.63181.520046-1.094112.326941-2.18836.654018-3.283155.981232-.548081.160875-1.093429.332266-1.643422.486723l-1.653941.452446-3.309521.904208-3.332062.825273-1.666782.413524c-.556414.134654-1.116926.251556-1.675389.37788l-3.355285.745244c-.279232.065006-.559693.123047-.841247.176718l-.843158.166884-1.687001.333633c-2.245737.468423-4.512102.82773-6.773548 1.227325-.283057.047388-.565294.101195-.84917.143668l-.851629.126597-1.704213.252785-1.704623.252785-.852722.127417-.855044.106795-3.422771.426771-.856273.106522c-.285379.034005-.571851.05886-.857913.088768l-1.717055.173303-1.717738.173713c-.572807.058041-1.14534.119769-1.71965.158145l-3.445175.264802c-1.14821.101469-2.299561.148858-3.45064.213181l-1.727027.092319c-.575949.027313-1.151625.070059-1.728257.080574l-3.459929.105567-.865426.02622c-.288521.010789-.577179.016661-.8657.016252l-1.731809.011198c-1.154766.003278-2.310626.025402-3.466076.018453l-3.46717-.059696c-.577998-.013247-1.156816-.012154-1.73454-.035917l-1.733722-.068147c-1.15586-.048344-2.313222-.084671-3.469355-.144214l-3.467306-.217551c-.577862-.038921-1.156953-.066508-1.734268-.114716l-1.731808-.149677c-1.154357-.102698-2.3109-.193925-3.465531-.303588l-3.459929-.378699c-.576632-.065552-1.15463-.121545-1.730306-.195291l-1.726481-.228476c-1.150805-.15473-2.303796-.30072-3.454328-.463917l-3.445175-.539029c-.574173-.091773-1.150122-.174669-1.723065-.273953l-1.717055-.30946-3.436023-.62329-3.423727-.69649c-.570348-.118404-1.143018-.22793-1.711727-.353845l-1.70435-.389078c-1.135778-.261799-2.274698-.51472-3.40952-.785122l-3.393809-.857776c-.565294-.144897-1.133729-.280098-1.69711-.433189l-1.687957-.467332c-1.124713-.314103-2.253387-.618783-3.376597-.94231l-3.356788-1.016603c-.558736-.172347-1.121434-.334178-1.677438-.515266l-1.668012-.545447c-1.111325-.366545-2.227294-.722575-3.33616-1.099226l-3.313073-1.172015c-.551359-.198431-1.1075-.385664-1.65517-.593519l-1.643422-.625475c-1.094249-.420763-2.194918-.828414-3.287117-1.25737l-3.261844-1.327019c-.542616-.224106-1.090697-.43674-1.629078-.671089l-1.61569-.702499c-1.076079-.471428-2.158443-.931521-3.23056-1.414285l-3.202556-1.480656c-.532507-.249644-1.071707-.487543-1.599296-.747429l-1.584816-.778021c-1.055042-.521958-2.117324-1.032444-3.167857-1.565737l-3.134796-1.634431c-.521032-.275591-1.049031-.539575-1.564598-.824999l-1.548478-.855181c-1.030861-.573034-2.069099-1.135689-3.095043-1.719375l-3.058158-1.787385c-.50819-.30072-1.023484-.591061-1.52621-.900794l-1.508178-.930702c-1.004905-.621925-2.016641-1.234973-3.016765-1.866321l-2.976055-1.933374c-.494803-.32462-.995616-.641045-1.485501-.973038l-1.465282-1.002946c-.9756706-.670543-1.9569424-1.335213-2.9289247-2.013267l-2.8835702-2.079774c-.4797753-.348245-.9637856-.691574-1.4401457-1.044599l-1.4170587-1.075053-2.8337074-2.155978-2.7832982-2.222487-1.3915125-1.113428-1.3648735-1.145522-2.7304301-2.294594-2.6756493-2.359736-1.3376881-1.182258c-.4412512-.399048-.873896-.807109-1.3113222-1.210664l-2.6177266-2.430477c-.8617377-.821722-1.7081751-1.659286-2.5630824-2.489475l-1.2793555-1.248903c-.2151612-.206488-.4239017-.41885-.6311395-.63285l-.6243091-.639405-2.4958702-2.562674c-.4204865-.423494-.8178858-.867609-1.2251211-1.30312l-1.2155585-1.312816c-.806274-.879216-1.6327663-1.742181-2.4115816-2.645843l-2.366227-2.688452-.591386-.672864-.5748561-.686248-1.1498489-1.373588c-3.0895785-3.646468-6.0029297-7.438242-8.8567189-11.278498l-2.0837169-2.920343-1.0413803-1.46181-1.0068179-1.484889-2.0094009-2.97497c-.6617403-.997073-1.294246-2.012173-1.9406859-3.01949l-.9647419-1.514524c-.1592876-.253332-.3247227-.503249-.4788191-.759448l-.4635188-.768324-1.8531187-3.075892c-.6288172-1.020017-1.2032635-2.068986-1.7991576-3.107302l-.8871473-1.561368-.442754-.781571c-.0665292-.102425-.409421-.740874-.515294-.942447l-1.5833134-2.953118c-.1338781-.252785-.2596962-.477437-.4001316-.753029l-.4269071-.850401-.8519019-1.702714-.8495794-1.705581-.7781323-1.655325-.7767661-1.656691-.3881099-.828687c-.1277306-.276957-.2463084-.558011-.3696675-.837017l-1.4644624-3.356127c-.4696662-1.126812-.9238954-2.260179-1.3855016-3.391224-.4714422-1.127359-.8871473-2.276158-1.3225243-3.417992l-.6468498-1.715551c-.2152978-.572078-.4076451-1.152213-.6122874-1.728115l-.6024514-1.732212c-.1984947-.578224-.4072353-1.153443-.5876975-1.737675l-1.1166526-3.495425c-.3599681-1.169148-.6908383-2.347035-1.0356427-3.521236-.3532742-1.172152-.6529972-2.358507-.9678839-3.541448-1.2401483-4.735314-2.3193697-9.518699-3.1526925-14.346332-.8482133-4.824766-1.5043526-9.683946-1.97210628-14.561562-.44466652-4.879256-.69398032-9.775309-.75641123-14.672864l-.01024577-1.836549-.00409831-.918548c-.00286881-.306046-.00232237-.612228.00560102-.918274.02349698-1.224184.04685734-2.448095.0702177-3.671869.08961635-2.446183.18633645-4.893185.37349256-7.333359l.12704757-1.831223c.0490431-.609771.11010791-1.218449.16502525-1.827673l.17212897-1.827126.08688415-.913358.10628277-.911173c.144807-1.214761.2896139-2.429248.4342842-3.643463.1734951-1.210664.3469901-2.421055.5203486-3.631172.7430234-4.833506 1.6715636-9.635737 2.7841179-14.392902.2907067-1.186492.5812768-2.372437.8717103-3.558246.3071-1.181575.6329155-2.358097.9502613-3.536941l.2398877-.883586c.0808733-.294165.1711727-.585598.2564175-.878671l.5196656-1.755155.5213049-1.754746.5601022-1.742181.5620148-1.741362.2836029-.86993.3006793-.863785c.4027272-1.15112.7994435-2.304563 1.2106405-3.452406.4290929-1.141424.8580493-2.282712 1.2870056-3.423454.2096968-.572624.443437-1.135416.6700735-1.701212l.6840078-1.695202c1.8492936-4.509843 3.8578748-8.952221 6.0417271-13.305012 8.7453815-17.40488 20.2195537-33.389877 33.8202019-47.191172l.6338718-.650604c.2121558-.215912.4310055-.425132.6463033-.637903l1.2971148-1.27048 1.2983443-1.269114c.4357868-.41967.8827757-.827185 1.324027-1.240982l1.3283985-1.236065c.4441201-.410383.8820928-.827868 1.3382345-1.224321.9055897-.80151 1.8107696-1.60261 2.7156762-2.403437 3.6601997-3.157149 7.4290046-6.178551 11.2958958-9.058743 3.8853335-2.854244 7.8649281-5.566596 11.9297676-8.130636 1.0252603-.625748 2.0501107-1.251224 3.0745514-1.876426l.7689794-.468014c.256417-.155823.518436-.30154.777449-.452719l1.558314-.898199c1.039331-.597753 2.0747-1.203016 3.132201-1.764442l1.578532-.85682.789471-.42759c.365432-.193105.297537-.171801 1.018976-.540667.949988-.486724 1.899703-.973175 2.849008-1.459489.208877-.111302.562424-.275045.840016-.410793l.885645-.425541 1.773338-.846987c.298357-.142849.593026-.282147.867339-.402462l.840836-.377334 1.68263-.752483c.28087-.124139.559829-.252648.842885-.372007l.850263-.355483 1.701208-.708509c4.54803-1.860175 9.181168-3.507852 13.879196-4.924732 9.395237-2.837583 19.043886-4.763037 28.752233-5.754238 4.854447-.493279 9.723648-.757672 14.584516-.790311 4.861141-.030728 9.713129.174122 14.535062.599664 4.821661.431005 9.612447 1.085432 14.352825 1.956864 4.739694.874574 9.428023 1.9682 14.045724 3.273641 18.471079 5.220672 35.801598 13.842675 50.85578 25.201337 7.52955 5.674347 14.497085 12.016232 20.800147 18.890317.778679.867472 1.565691 1.72675 2.332211 2.602688.757095.884133 1.513506 1.767583 2.269371 2.650487.73346.901204 1.466511 1.801725 2.199152 2.701563.370077.446846.715018.913221 1.072391 1.369354l1.061872 1.376046c2.801467 3.68935 5.428893 7.490001 7.873398 11.383518l.908185 1.464405c.302592.487953.60655.974813.892475 1.471779.580048.989153 1.160915 1.977077 1.732355 2.968824.552316 1.001853 1.104358 2.002887 1.65599 3.003102.13907.249507.274177.50079.403957.754941l.394667.758901.786466 1.518485.391798.759174c.384558.755624.291117.589969.460104.930156l.642068 1.324288.322947.667401.400951.868564c.265024.579726.530048 1.159315.794935 1.738768.127868.284741.273084.592426.38087.853542l.345351.811343.687696 1.622822c.116255.269582.225953.542033.332919.815576l.324176.818991.645211 1.637981c3.345176 8.772226 5.693507 17.870983 7.026824 27.039388.663926 4.584818 1.086052 9.186979 1.242334 13.778762.157785 4.591646.064753 9.171274-.2668 13.712117-.668434 9.081276-2.284944 18.009461-4.813191 26.585168-1.258181 4.289423-2.737943 8.492264-4.419206 12.590631-1.684815 4.097138-3.572906 8.088846-5.650202 11.957098-.519393.967029-1.061599 1.920537-1.593286 2.877734-.549447.947499-1.106134 1.889536-1.663777 2.828979-.578408.927698-1.149302 1.85799-1.737 2.776401-.299176.455723-.59808.911446-.896983 1.36676-.301772.453265-.592479.913085-.906136 1.358019-2.448603 3.59744-5.065647 7.056811-7.845393 10.352986-2.77838 3.297403-5.711404 6.437344-8.779398 9.406578-3.070179 2.966912-6.27574 5.762159-9.593321 8.375909-6.637075 5.226545-13.72592 9.719589-21.073368 13.437208-.460104.230252-.919934.460503-1.379628.690618l-.889606.440701-.593708.276547c-.39576.184092-.791111.368184-1.186461.55214-.183604.086446-.506824.228612-.753406.339641l-.794389.353571-.794525.350704c-.267483.118539-.531961.234211-.770072.329672-.491114.201709-.981819.403144-1.472386.60458l-.736603.298945-.74275.283649c-.495212.187779-.990151.375422-1.484817.563064-3.972355 1.462903-8.018069 2.668514-12.09411 3.636089-4.076451.969077-8.192383 1.662836-12.305583 2.122247-2.055848.238855-4.114565.38703-6.166862.502975-.513518.020212-1.026763.040151-1.539598.060226-.512835.017617-1.024987.042336-1.537412.045067-1.024577.012427-2.046969.035507-3.068131.015295-8.169432-.063367-16.208539-1.128724-23.917868-3.02823-3.852683-.962385-7.624084-2.132489-11.293983-3.498429-.46106-.16429-.914059-.349611-1.369655-.526055-.454502-.178903-.908731-.357942-1.362824-.536571-.449721-.188598-.899169-.377197-1.34848-.565523-.448219-.1901-.898623-.373646-1.34083-.576311-.886465-.399867-1.776617-.785805-2.647645-1.21121-.436879-.208947-.873486-.417894-1.309819-.626705-.433875-.21359-.863514-.434965-1.294519-.652652-6.888302-3.496517-13.27456-7.740055-19.046755-12.546657l-.54166-.449304-.53278-.459547c-.354094-.306592-.708188-.613185-1.061872-.919367-.70245-.617828-1.38796-1.253-2.078115-1.878885-.674446-.643912-1.352169-1.281405-2.013773-1.933238-.327728-.328989-.655046-.657706-.982365-.986148-.327045-.328307-.653953-.65593-.969796-.994343-2.56158-2.671108-4.96073-5.458571-7.181057-8.345864-2.220874-2.886884-4.267569-5.868955-6.135578-8.92204-1.865687-3.054724-3.552141-6.180053-5.060319-9.350996-.086474-.17262-.329914-.699358-.333466-.706596l-.230325-.509667-.230052-.509257c-.068168-.148038-.164752-.368184-.267619-.605127-.196446-.454221-.392618-.908169-.588791-1.361707-.098086-.227793-.196582-.457225-.275679-.660846l-.251636-.630665c-.681412-1.67581-1.278536-3.379616-1.849157-5.081784-1.10791-3.418128-2.000795-6.876816-2.660486-10.348888-1.318016-6.946329-1.703394-13.933765-1.250531-20.72154.226637-3.394502.650129-6.742162 1.282635-10.016485.0806-.408881.161063-.817352.24139-1.225413.088933-.40615.177867-.811753.266663-1.216946l.134152-.607039.146309-.603488c.098496-.40178.196992-.802876.295352-1.203836.101091-.399867.212429-.79714.318711-1.194686.109425-.396726.21038-.795091.330324-1.187993.23374-.787444.459147-1.574478.716521-2.350313.997392-3.112083 2.162678-6.135943 3.498044-9.047818.167484-.363541.334968-.726671.502042-1.089529.174998-.358897.349723-.717522.524174-1.075736.343712-.718751.718434-1.420567 1.084549-2.123476.366936-.702636.759963-1.389839 1.139467-2.080867.399995-.680375.787148-1.365121 1.198892-2.033478 1.632356-2.681897 3.399274-5.244162 5.28313-7.675459 1.888227-2.428292 3.895989-4.723159 6.005115-6.872992 2.108717-2.150107 4.310602-4.1631 6.595272-6.021773 2.284808-1.858536 4.644614-3.570263 7.058791-5.13245 2.41691-1.558363 4.88737-2.967458 7.390208-4.228788.622259-.322297 1.254082-.620149 1.882899-.918548l.471306-.223559c.108742-.052988.785236-.379383.692887-.322298.27609-.116628.551769-.233119.827176-.349474.275269-.116355.550266-.232573.824853-.348655l.411743-.173986c.148905-.061318.247948-.108434.437426-.181224.719527-.279688 1.438097-.554461 2.155164-.82418.358602-.133562.716795-.267124 1.074577-.40055.342755-.115126.674308-.217414 1.011463-.325712.671303-.210722 1.340966-.420762 2.008991-.630255.165981-.054627.335651-.098055.504775-.142302l.507097-.133153c.337701-.088086.674992-.175898 1.011599-.26371.674445-.171255 1.341104-.359444 2.021833-.488773.676767-.139844 1.351895-.279415 2.024974-.418577l.504365-.102015.508054-.080847c.338247-.052988.676221-.105976 1.013649-.158964.337017-.052032.673762-.103927 1.00996-.155823.336334-.050802.670756-.107204 1.00914-.137795.674035-.071015 1.346294-.141893 2.016778-.212635.335378-.030864.668297-.076477 1.003812-.093958.335105-.019119.6698-.038375 1.004086-.057631.667478-.035507 1.33318-.071015 1.996969-.106385.664063-.004234 1.326486-.008604 1.986997-.012838.329641-.000682.658871-.001365.987556-.002048.328684-.000683.656822.022943.98414.033868.654227.029499 1.306405.058724 1.956806.088086.32486.009833.648353.042609.971163.072107.32281.029635.645074.059407.966928.089042.321307.030454.642205.060772.962692.09109.320215.029908.639883.058723.957229.108297.634555.089998 1.267197.179722 1.8982.269173 5.03969.746883 9.82351 2.141639 14.274 3.937765 4.448441 1.806641 8.576531 4.029127 12.279627 6.623758 3.709379 2.583023 7.031059 5.472774 9.923918 8.567649 2.895319 3.092963 5.377528 6.373022 7.44936 9.731334.510103.845075 1.035096 1.668845 1.480446 2.530581.230052.425542.45901.849445.687286 1.271573.113387.210995.226773.421581.33975.631621.103141.215092.206008.429775.308739.644048.204506.428273.408055.854771.610648 1.27963.100819.212088.201364.423767.301772.635172l.222675.465556.118441.289658c.157785.385664.314887.769826.471169 1.15235.078415.191193.156419.38225.234287.572624.036612.085081.085928.226154.127731.3365l.129779.352206c.17049.469107.340023.936165.50901 1.401038l.124452.348245c.042623.116491.083059.23189.11407.34087.067212.221512.134288.442477.20109.663032.132376.440564.264205.879216.395487 1.31582l.096447.327077.082649.330901c.054781.220146.109288.439882.163933.658935.107512.437969.214614.873754.32117 1.307763.097267.435784.175271.874436.262019 1.307762.083605.434419.169397.865424.247674 1.295472.062431.432917.124589.863921.186473 1.293014.479366 3.430555.571578 6.761144.368165 9.919249-.202866 3.159744-.717887 6.146731-1.430719 8.925727-.716112 2.779816-1.633996 5.353552-2.678655 7.712059-1.058457 2.35441-2.253387 4.484577-3.489164 6.414128-.319805.474843-.634828.942857-.945343 1.404043-.150681.232573-.319395.451353-.482098.670815-.163113.219053-.325132.436331-.485923.651833-.160653.215093-.320078.428274-.478272.639815-.155599.213044-.331007.409564-.493573.612092-.330324.400277-.655183.793999-.974715 1.181029-.326225.380885-.666112.739645-.989332 1.099226-.328411.355346-.63715.715063-.974987 1.038043-.33087.327897-.65573.649511-.974578.96539-.312701.320249-.644664.609907-.965425.89738-2.553247 2.313577-4.922342 3.9618-6.877236 5.176151-.497535.289112-.965152.56047-1.402305.814348-.219942.123729-.425131.253877-.635237.359443-.208468.107478-.409148.210996-.602042.31028-.772395.394405-1.407906.738006-1.944784.963205-1.057637.47293-1.594789.713288-1.594789.713288l-1.860222-3.650838s.448628-.293482 1.33195-.871296c.447945-.274635.972119-.672181 1.605034-1.127085.157649-.114169.321854-.232846.492481-.356166.171719-.120998.336607-.266714.514474-.405876.351635-.28283.727723-.585325 1.127991-.907076 1.559407-1.332208 3.421405-3.067152 5.318922-5.371851.492344-.558695.93701-1.197554 1.426485-1.829311.250133-.311782.469256-.657979.706275-.997211.231691-.343738.477863-.684062.708871-1.044052.224041-.363814.45177-.733773.683325-1.109878.112977-.189281.238521-.371734.343848-.570166.107922-.196246.216527-.393995.326089-.593245.109425-.198705.219942-.399048.331143-.600757.110791-.201709.22691-.40178.324996-.61496.205052-.419124.413246-.844529.624446-1.276353.802175-1.745595 1.537412-3.632947 2.155847-5.659324.598353-2.033205 1.064057-4.207347 1.343699-6.496342.28087-2.288448.36311-4.693115.213385-7.16743-.149588-2.474316-.549173-5.01869-1.235094-7.569756-.085381-.318337-.171036-.638313-.257237-.959655-.102731-.316561-.205735-.634489-.309149-.953918-.105873-.318201-.201227-.640088-.314204-.958289-.120763-.315469-.241937-.632304-.363656-.950504-.060246-.1591-.120491-.3182-.181009-.47771l-.090299-.239265-.103551-.235714c-.138113-.313558-.277046-.62848-.416388-.944769-.069125-.157871-.13825-.316015-.207648-.474706-.033606-.082486-.070218-.154047-.106966-.223423l-.109561-.212771c-.143578-.283649-.287565-.568527-.432372-.854498l-.106692-.214683c-.040164-.077433-.060109-.130148-.116256-.228612-.099315-.179995-.198904-.360673-.298493-.54176-.199451-.361902-.399859-.725306-.601086-1.090349-.368574-.585461-.740427-1.175976-1.115286-1.771407-.098633-.157598-.197539-.315469-.296718-.47375-.107922-.152818-.216117-.305636-.324449-.459-.215571-.306183-.431962-.613595-.649309-.922372-.416798-.627524-.90518-1.212303-1.371021-1.815791-1.895058-2.391556-4.057326-4.666621-6.494453-6.73547-2.437128-2.067074-5.132313-3.944593-8.066429-5.538872-.090846-.05094-.180189-.104611-.272537-.153501l-.281144-.140118c-.18702-.093685-.374586-.187642-.562425-.2816-.373902-.189009-.749034-.378563-1.125396-.568664-.38565-.170709-.772531-.341827-1.160777-.513628-.193167-.086446-.386607-.17303-.580594-.259613l-.29016-.130831c-.097813-.041379-.198358-.07757-.297538-.116764-.396579-.154457-.794525-.30946-1.1937-.464873-.198768-.078253-.397946-.156642-.597261-.235168-.203549-.06801-.407508-.136157-.611741-.204441-.407235-.137113-.815563-.274635-1.225257-.412568l-.306827-.103244-.313111-.087539c-.208604-.058724-.417344-.117311-.626358-.176308-.418437-.116218-.834143-.242406-1.255312-.353708-.424585-.098191-.850536-.196519-1.277853-.29512-.212975-.049984-.425951-.10024-.639609-.150497-.105873-.027313-.213659-.048344-.322401-.066235l-.324859-.058177c-.432098-.078936-.865563-.158281-1.300393-.237626l-.325406-.060636c-.108605-.019119-.21926-.029635-.328821-.04534-.21926-.029362-.439065-.058724-.658871-.088222-.439886-.057085-.878405-.124822-1.320202-.177127-.443164-.037829-.887831-.075931-1.333727-.11417-.222265-.019939-.444803-.040014-.667614-.059953-.222812-.018846-.448082-.018436-.672123-.029088-.447672-.017617-.896573-.035235-1.346977-.052988-.224178-.014749-.450131-.009423-.675812-.005736-.225543.002595-.451497.005053-.677587.007784-.22568.001912-.45177.003688-.678133.005599-.22609.001503-.452317-.001092-.67909.01871-.452317.026767-.905863.053534-1.360775.080574-.227047.015979-.454503.0183-.681276.044112-.226636.025128-.453683.050256-.681002.075521-.45341.047525-.908185.095323-1.364191.142985-.452316.071152-.906136.142303-1.361048.213727-.227046.034688-.454366.069239-.681959.103791-.227729.032093-.452043.091363-.678543.135201-.45136.092729-.904087.185867-1.357906.279279-.227593.039877-.451224.104746-.675811.163197-.224451.058451-.449175.117038-.674309.175625-.224724.057768-.449858.115672-.675128.173576l-.338111.085901-.333875.105702c-.444667.139298-.890563.279143-1.337552.41926-.449994.125641-.885644.306592-1.327442.466375-.220216.081121-.440705.162378-.66174.243499l-.33128.120998c-.110654.039877-.221582.078662-.329094.128646-.433601.18573-.868432.372144-1.304082.558831-.215844.092319-.440842.182999-.649992.275318-.186473.093685-.373356.187233-.560375.281191-.374176.185458-.749581.366955-1.126899.544628-.086201.038512-.24986.13165-.371033.194881l-.393984.210995c-.262839.140664-.526087.281601-.789608.422538-.263521.14121-.527316.282556-.791657.423903-.363656.183409.044535-.010243-.110381.079755l-.325269.194744c-.434284.25893-.871027.514583-1.296158.791131-1.716782 1.07833-3.38575 2.252394-4.995702 3.520143-1.612548 1.263652-3.166627 2.620988-4.650625 4.068459-1.483724 1.447744-2.890127 2.992859-4.218253 4.617594-1.32471 1.627738-2.578929 3.330042-3.733286 5.115106-1.150669 1.786975-2.208988 3.649745-3.165261 5.577384-.962146 1.924908-1.793283 3.929297-2.536989 5.974247-.743024 2.046316-1.357224 4.152174-1.853256 6.295589-.132239.533702-.235379 1.075463-.350132 1.614491-.060518.268764-.102731.542034-.15437.813119-.04836.271904-.102731.542443-.147675.815166-.043169.272861-.086338.545994-.129507.819401l-.0653.409836-.054371.411885c-.037021.274499-.074042.548862-.1112.823771-.030464.275591-.060928.55132-.091256.827457-.249041 2.206236-.351908 4.438282-.324586 6.676337.019399 2.238738.201773 4.483622.505048 6.718536.03265.279825.0806.558285.124179.83729.043989.278596.088114.557466.132239.836471.050955.277914.102048.5561.153003.834423l.075273.417348.086337.415846c.056694.277366.113387.554733.170217.832374.063933.276137.128004.552412.192074.82896.119261.55446.275679 1.101956.412563 1.653276.591386 2.196949 1.330857 4.364262 2.198333 6.492655.451087 1.058255.906136 2.11692 1.424982 3.152369l.189615.390171c.064617.138342.123086.245137.181418.353981l.347127.661529c.051639.101196.112294.218234.212019.402189l.264478.492459.264614.492597c.163249.311235.077185.137795.168441.293481 1.21146 2.143142 2.536443 4.228652 3.972217 6.24424 1.433315 2.017227 2.977695 3.964395 4.62863 5.829896 3.301598 3.729227 7.016305 7.148311 11.116117 10.126148 4.096123 2.978657 8.545657 5.556627 13.281117 7.599801 4.724804 2.062977 9.728292 3.591568 14.867845 4.566381 2.572099.477984 5.178623.813528 7.802907 1.003629.327318.029635.656276.045477.985097.061728l.98619.052988.987965.028952c.329504.007102.658599.026221.988649.022124.659691-.000819 1.319382.01789 1.979893-.004097l.990561-.017071.990698-.042882c.660921-.018846 1.320885-.075658 1.981533-.116628.33046-.016798.659964-.05449.989878-.083442l.989878-.090407c1.31747-.152272 2.635623-.311236 3.946672-.535751 2.623464-.43278 5.231901-1.009502 7.800175-1.765945 2.569503-.748931 5.108132-1.641805 7.592937-2.700606l.928267-.407515.464748-.202392.45983-.215366.921163-.429502c.162703-.072927.293166-.139435.41994-.20485l.390433-.196929.821574-.409564c.38647-.201709.773078-.403418 1.160095-.6054l.580457-.302769c-.237839.115809.204232-.120315.273084-.16306l.942201-.528923c2.506662-1.422069 4.950074-2.962542 7.317531-4.621691 2.367456-1.658739 4.654996-3.441344 6.858793-5.332383 2.202841-1.892405 4.316066-3.900892 6.328882-6.017539 2.015275-2.114053 3.929868-4.337359 5.732305-6.660222 3.606512-4.644087 6.772865-9.684218 9.404253-15.035175 1.31542-2.675342 2.498192-5.427024 3.539572-8.240572 1.045069-2.812181 1.94697-5.686911 2.705567-8.60698 1.520336-5.840139 2.423057-11.87229 2.69983-17.956337.139342-3.04216.118441-6.097977-.061065-9.151198-.182648-3.053086-.535239-6.102211-1.046845-9.131943-1.02444-6.059328-2.692042-12.04177-5.011685-17.823867l-.448765-1.079697-.222948-.540531c-.073086-.180678-.148222-.360536-.230052-.537936l-.47636-1.070683-.237019-.536024c-.08101-.190511-.151364-.322571-.226226-.483447l-.438656-.928517-.216527-.465829-.327045-.651969-.661058-1.315001c-.051365-.098328-.351908-.709327-.198768-.386757l-.293575-.544764-.585102-1.091305-.29139-.54654c-.095217-.183272-.195353-.363814-.299313-.542033-.407782-.717795-.8157-1.436136-1.223892-2.155023-.425404-.707962-.851218-1.41647-1.277306-2.125388-.208057-.357531-.432918-.704547-.655593-1.053065l-.665838-1.047331c-1.793147-2.782-3.703779-5.494761-5.734218-8.124763l-.769252-.980549c-.25915-.324892-.505049-.660436-.775127-.976725-.529092-.641454-1.05873-1.283181-1.588641-1.925454-.545212-.629026-1.090697-1.258599-1.636865-1.888444-.552452-.62411-1.122254-1.233471-1.681126-1.853484-4.537102-4.898374-9.527203-9.426653-14.915659-13.502487-10.771039-8.156446-23.172386-14.452171-36.439568-18.405641-13.263084-3.954562-27.395829-5.550071-41.472701-4.442788-7.037616.54572-14.058566 1.756248-20.947413 3.628441-3.444083.937257-6.856881 2.035253-10.222139 3.299998l-1.259547.482353-.630593.240221c-.20997.080848-.416389.171118-.624992.255653l-1.249985.514037-.625811.256199c-.216664.086174-.40587.169479-.59043.251966l-1.128538.494781-.565976.245274c-.204643.091773-.340843.139434-.607233.269992-.963649.457362-1.927571.915134-2.891904 1.372905-.761875.383753-1.524161.767778-2.286719 1.15194-.845072.411886-1.667739.864468-2.49628 1.3079l-1.243701.665216c-.206554.111985-.416524.218644-.62062.334998l-.612424.349475c-.817749.4646-1.635908.929473-2.454341 1.394619-3.240806 1.915211-6.426558 3.935716-9.544825 6.070253-3.099278 2.159939-6.129021 4.431727-9.0818524 6.812767-.730182.6054-1.4605007 1.210937-2.1912292 1.816611-.3698041.297988-.7219854.616325-1.0805874.927424l-1.0740302.936711c-.3569627.313557-.7199363.620832-1.0729373.939169l-1.0510796.964161-1.0531288.963752c-.1748612.161285-.3534109.319156-.5254032.483446l-.513928.495873c-11.0471284 10.492147-20.5513802 22.819614-27.9756035 36.448972-7.4067372 13.635093-12.7417792 28.546539-15.6581359 44.022961-.1762272.968531-.3524545 1.937335-.5286818 2.906413-.1536866.973174-.3073732 1.946485-.4610598 2.920069l-.1152991.730632-.0967201.732953-.1950795 1.466863c-.06448.489182-.135654.977818-.1954893 1.467683l-.1610635 1.471779c-.2363359 1.961644-.3857875 3.932302-.5508128 5.904052l-.1863364 2.962678c-.0183058.24705-.0292346.494235-.0368848.741558l-.0280051.741967-.058196 1.484753c-.130053 3.960571-.1147526 7.932614.0464475 11.906705.1840141 3.972452.5167968 7.944358.9913809 11.907524.4659778 3.965078 1.1284011 7.911992 1.917872 11.84047.201227.981505.3853777 1.967927.6213037 2.94233.2273195.976725.440295 1.957957.6758111 2.934136l.7416573 2.921298c.1172117.489182.2621552.970443.3964431 1.455118l.4072353 1.45307c.1379764.483856.2632481.972219.4110604 1.45348l.4433004 1.444193c.29904.962249.5766321 1.932555.9088684 2.885108.322127.95583.6356477 1.915758.962966 2.871588l1.0338667 2.850557c.0868841.237489.16967.476754.2596962.713015l.2758162.707142.5506761 1.415241.5499931 1.416743.5557306 1.332754.553545 1.335759.2759528.669041c.0965835.229432.2249971.501746.3360613.75057l1.3816766 3.052676c.1352442.301949.0617478.152818.2524558.545721l.3364712.701133.6714396 1.403906c.4516337.934116.8815463 1.881343 1.3646003 2.799481l1.4145996 2.776537.3534109.694988c.1174848.232027.2460351.457362.3684379.686521l.7431601 1.370174.7428868 1.371676.3703505.686931c.1224028.229841.2465816.458454.3781373.682423l1.5524395 2.708391.7774492 1.355288.8111919 1.33453 1.6217009 2.673567c2.2342614 3.517958 4.5043148 7.028952 6.958109 10.415123l.910371 1.277991.4551855.639406.4715788.626704 1.8865882 2.510506c.6188446.846167 1.2852297 1.653413 1.9313964 2.478549l.9756708 1.233334c.3271816.409564.6445273.828004.9850968 1.226233l2.0128162 2.419689.5028625.606083c.1668012.203074.3349684.404647.509693.600484l1.0364623 1.185672c.6931607.789082 1.3778515 1.587315 2.0781159 2.371481l2.1341261 2.323409c.3568261.38662.7091441.778294 1.0699319 1.161227l1.0967074 1.135552 2.1950543 2.274245 2.251611 2.220029 1.1263514 1.112199 1.153674 1.082837 2.308988 2.169226 2.362265 2.11337 1.182226 1.057709c.398355.347699.804361.685974 1.206405 1.029713l2.418139 2.05806c.817203.672455 1.644515 1.333164 2.466636 2.001658l1.235503 1.000898c.41352.33172.838104.648419 1.256678.973584l2.52128 1.941842c.84917.635854 1.710771 1.255321 2.565951 1.884894l1.286733.939852c.429093.313147.87089.607448 1.305721.912402l2.620459 1.817566c.880726.595431 1.774431 1.171333 2.661441 1.759116l1.333454.878124c.44412.293755.900808.566342 1.350802.85081l2.710485 1.692198c.909961.553915 1.832354 1.086935 2.748463 1.632382l1.376758.814621c.458601.27245.92895.523323 1.392879.786214l2.794773 1.561367c.93824.508575 1.887818.995845 2.831659 1.495816l1.418151.7462c.472672.249234.955453.477164 1.432769.716975l2.873188 1.424391c.963376.463234 1.936451.905847 2.905838 1.358429l1.455719.676142c.485513.225062.979496.429775 1.46897.645824l2.944635 1.282361c.98701.41448 1.981806.809841 2.97305 1.216536l1.488643.60663c.497261.199797 1.001217.380884 1.50162.572351l3.008569 1.136098c1.008047.36436 2.022515.711103 3.033978 1.068225l1.518697.53261c.507234.175079 1.019659.332813 1.529352.500108l3.064306.988469c1.026489.313011 2.057897.609634 3.087119.91609l1.545063.456542c.515977.148858 1.036052.281464 1.554078.423221l3.111983.838929c1.041244.26412 2.086996.509803 3.131381.764637l1.567057.379792c.523354.123183 1.049714.229842 1.57457.345923l3.152829.681468c1.054359.21045 2.111859.404374 3.167993.608132l1.585226.302222c.528955.097235 1.060779.176854 1.590964.266305l3.184932.524006c1.063921.159647 2.130574.300038 3.196135.449715l1.599297.221647c.533463.072517 1.068839.124686 1.603121.188189l3.208703.364087c1.070888.107068 2.143689.191876 3.215943.289385l1.60886.142029c.536332.049438 1.07403.071834 1.611045.108434l3.224003.201163c.268712.019393.537561.029772.806411.038785l.806957.030591 1.613777.060362 1.614324.05927c.269122.012155.538245.018027.807367.019393l.807367.00956 3.230423.039331c.538655.012427 1.076626-.007238 1.615007-.011199l1.615007-.022397c1.076626-.017344 2.154208-.017617 3.229468-.071014l3.227965-.127554c.538517-.015432 1.075396-.05408 1.612548-.088768l1.611728-.103927 1.611865-.104201c.268576-.018846.537561-.032776.805727-.055582l.803952-.0732 3.216763-.29157.804088-.072653.802176-.092729 1.603531-.187916 1.603805-.187779.801903-.093685c.267209-.031547.533053-.074292.79958-.110892 2.130027-.308504 4.265793-.585052 6.383389-.968941l1.59151-.269583.795618-.134381c.265708-.043292.530458-.090134.79398-.144351l3.16649-.622744c.527315-.106113 1.05668-.202256 1.58222-.316426l1.57457-.350976 3.148321-.704684c4.174128-1.032991 8.338966-2.110912 12.435909-3.408569l1.539871-.474023c.256281-.080301.514202-.155549.76898-.240084l.763378-.257019 3.05324-1.026981c1.022119-.329809 2.023609-.717249 3.032886-1.082428 1.006271-.372827 2.01828-.730768 3.019907-1.115204.997802-.394814 1.995467-.789492 2.992722-1.184033l1.495336-.593519 1.479353-.631621c.986326-.420899 1.972106-.841797 2.958023-1.262696.248631-.103381.49125-.211405.729362-.322707l.720073-.329399 1.439053-.660436 1.439053-.659618.719799-.330218.742887-.364223c.990425-.485631 1.98044-.97099 2.970181-1.456484l.742068-.36477c.311744-.151999.409011-.201299.659417-.334998l1.430174-.749888c.953403-.499834 1.906533-.999532 2.85939-1.498956.475267-.252102.955862-.493962 1.426621-.754121l1.408316-.786351c.938513-.524417 1.876889-1.048833 2.815128-1.572976.468027-.263574.939059-.522367 1.404764-.789902l1.384955-.822951c.922666-.549271 1.845332-1.098133 2.767588-1.647131 7.347722-4.440876 14.437386-9.265641 21.228148-14.439334 13.582889-10.346567 25.950902-22.1066 36.847896-34.92994 10.903004-12.820746 20.325563-26.706576 28.151284-41.247653 7.826131-14.543808 14.062664-29.736444 18.699218-45.19047 4.641881-15.455391 7.69116-31.165751 9.264227-46.789666 1.559134-15.628967 1.646154-31.169985.3974-46.362622l-.109425-1.423981c-.03224-.474432-.092485-.947363-.137294-1.42084-.094807-.946134-.189341-1.891449-.284012-2.836217l-.139753-1.415924c-.02459-.235714-.043988-.471838-.072267-.707142l-.088113-.705504c-.116802-.940125-.233604-1.879567-.350269-2.818327l-.174042-1.406774c-.059152-.46856-.110381-.93753-.18579-1.403905-.138932-.933434-.277728-1.866321-.416524-2.798525-.13743-.931522-.274724-1.862361-.41188-2.792516-.159971-.926469-.319668-1.852391-.479366-2.777631-1.264738-7.399867-2.838762-14.688295-4.699531-21.844664-.240024-.8926-.480185-1.784381-.720073-2.675478l-.357509-1.336032-.17773-.667538c-.060928-.222058-.129097-.442203-.193167-.663442-.518846-1.76649-1.036872-3.530249-1.553942-5.291413-.55778-1.747644-1.114603-3.492421-1.670744-5.234602-.070764-.217278-.135381-.436194-.20997-.652106l-.223631-.647736-.446989-1.294652c-.296991-.862419-.593982-1.724155-.890562-2.585345-2.427019-6.869578-5.120838-13.587158-8.046757-20.144409-.370077-.817898-.739608-1.634976-1.108866-2.451372l-.552315-1.224321c-.091119-.208127-.185654-.398774-.279505-.593245l-.28128-.582184c-.749854-1.558909-1.498342-3.115087-2.245601-4.66867-.867475-1.705445-1.733448-3.407749-2.597781-5.107185l-.323493-.637357c.099589.201436-.156965-.285424-.21803-.394131l-.642342-1.187311c-.426907-.791677-.853268-1.582672-1.279219-2.372983-.424858-.790722-.849443-1.580623-1.273617-2.369842l-.317483-.592017-.332919-.58314-.664746-1.165597c-.883049-1.554675-1.764458-3.106483-2.644365-4.655422-.110518-.193242-.217484-.388669-.331007-.579999l-.344395-.571668-.686466-1.143473c-.457099-.762179-.913923-1.523675-1.370202-2.284352-.454775-.761496-.909278-1.522172-1.363234-2.282166-.222675-.382796-.463382-.753985-.699171-1.127904l-.708188-1.120803c-.941792-1.494859-1.881671-2.986851-2.819773-4.476111-.229369-.375558-.481415-.736094-.722259-1.103732l-.729089-1.097723c-.485513-.731724-.97048-1.462766-1.455037-2.193125-.48319-.731041-.966108-1.4614-1.448479-2.191076-.237292-.367638-.497944-.718887-.744662-1.079287l-.749308-1.07437c-.996845-1.433268-1.991641-2.863531-2.984525-4.290926-1.025124-1.404315-2.048335-2.805626-3.06936-4.204206-.510103-.699768-1.019659-1.398716-1.528669-2.097118-.519529-.690209-1.05149-1.370174-1.575664-2.054783-1.049986-1.368262-2.097924-2.733656-3.143949-4.096182-1.078402-1.336852-2.154754-2.670835-3.228648-4.001951-.536878-.665899-1.073074-1.331116-1.608723-1.995649-.551769-.65115-1.102718-1.301617-1.653121-1.951402-1.101352-1.299842-2.200245-2.596816-3.296543-3.890922-1.127445-1.267612-2.252294-2.53222-3.374684-3.794096-.561195-.631485-1.121434-1.26215-1.681263-1.892132-.570348-.620422-1.149166-1.231695-1.721973-1.847065-1.147663-1.229919-2.292594-2.457108-3.434793-3.681428-1.17116-1.197144-2.339724-2.39142-3.50542-3.583101-.583053-.596114-1.165149-1.191681-1.746563-1.786566-.586604-.589695-1.189739-1.161226-1.782628-1.742045-1.188646-1.159041-2.37456-2.315488-3.557742-3.469204-.292346-.292253-.600129-.567571-.901491-.849445l-.907229-.841114c-.604364-.56088-1.208181-1.12094-1.811179-1.680453-.602725-.559787-1.204903-1.118891-1.806398-1.677449-.150818-.138889-.29904-.280918-.451634-.417894l-.46065-.407515-.920207-.814621c-1.225804-1.086388-2.448739-2.170181-3.668533-3.251243-.603407-.548589-1.236869-1.060168-1.855851-1.587588-.62185-.524143-1.24288-1.047604-1.863228-1.5705176-.619391-.524143-1.237962-1.0476032-1.855987-1.5703805-.310789-.2592037-.613244-.5283766-.930316-.7791131l-.94466-.7593109c-1.258181-1.0126422-2.513493-2.0229627-3.765527-3.0306884l-.938239-.7558967-.955726-.730905c-.636057-.488226-1.271432-.9756326-1.90585-1.4624929-.634418-.48727-1.268017-.9739938-1.900796-1.4600347-.632779-.4859043-1.26064-.9775445-1.908719-1.4394131-1.286049-.9384864-2.568683-1.8746512-3.848039-2.8083578l-.957775-.7019528-.478409-.3508399c-.159697-.1163549-.323766-.2265642-.485513-.3400511-.648626-.4509433-1.296432-.9012037-1.943418-1.3510545-1.294383-.8999746-2.58535-1.7976275-3.872765-2.6928223-1.308317-.8651501-2.612946-1.7279786-3.914022-2.5884854-.650265-.4311411-1.299711-.8618725-1.9482-1.291921-.321853-.2189165-.654636-.4200792-.982774-.6279338-.329094-.2066254-.658052-.4131143-.986463-.61933-1.314328-.8263651-2.624967-1.6505452-3.931918-2.4722671-.648899-.4192598-1.313371-.8098406-1.974565-1.2042452-.661194-.3946778-1.321295-.7889459-1.980576-1.1826677-.659281-.393995-1.317743-.7874437-1.974975-1.1804826-.657642-.3929025-1.311186-.7909944-1.98003-1.1594514-10.589484-6.100708-21.27924-11.4935907-31.95916-16.2116973-.66174-.3087773-1.336868-.5820473-2.005575-.8681546-.669937-.2837856-1.338645-.5671615-2.006396-.8501277-.668024-.2831028-1.334683-.5659325-2.000385-.8483524-.332782-.14121-.665565-.2822834-.997801-.4234934l-.498491-.2115418-.502453-.1993874c-1.339874-.5327467-2.675376-1.0637181-4.00637-1.5929141-.665839-.265076-1.330448-.5297423-1.993964-.7938623l-.497671-.1978851-.501633-.1855942c-.334149-.1235929-.668161-.2471857-1.002037-.370642-1.334819-.4958737-2.66513-.9899721-3.99107-1.4824316-.331553-.1234563-.662696-.2469126-.993703-.3702324l-.496305-.1849113-.499721-.17303c-.666385-.2298418-1.331677-.4592739-1.995876-.6881597-1.328809-.4594104-2.652836-.917182-3.972218-1.3733148-.657505-.2366701-1.324164-.4390619-1.98604-.653062-.66256-.2122246-1.324164-.4240396-1.984402-.6354449-10.563528-3.3940924-21.01162-6.1647577-31.253704-8.3853324-10.242767-2.2204381-20.280482-3.8845034-30.037189-5.0714047-4.878901-.5843689-9.686354-1.0784673-14.417305-1.4349064-2.364178-.2257448-4.711006-.3310377-7.03625-.4773006-.581413-.0349611-1.161461-.0696491-1.740005-.104337-.578818-.0320932-1.15627-.0771602-1.732492-.0906803-1.152991-.0405603-2.300108-.0809841-3.44135-.1211347-1.142609-.0417894-2.279206-.0834422-3.40993-.1249585-1.131133-.0293618-2.256392-.0344148-3.376733-.0528513-1.120751-.0157052-2.235628-.0311372-3.34463-.0465693-.277319-.0039604-.554365-.0077843-.831137-.0117447l-.414749-.0058724-.413793.0043702c-.551496.0060089-1.101625.0120178-1.650252.0180268-1.097937.0117447-2.189863.0233529-3.276052.034961-.543436.0047799-1.085369.0096963-1.625936.0143395-.270351.0024582-.540293.0049164-.809825.0073746-.269123.0087403-.537972.0176172-.806548.0263574-2.149972.0695125-4.276039.1382055-6.377651.2062158-.526496.0109253-1.048894.0493005-1.571019.0772967-.521988.0299081-1.042473.0596797-1.561319.0893146-1.038921.0585872-2.071422.1169011-3.098048.1748054-2.057351.0882221-4.079457.2781864-6.083257.4301852-1.002036.0790721-1.997789.1575979-2.987257.2355775-.247538.0195291-.494803.0390581-.741521.0584506-.245899.0256745-.491387.0512125-.736603.0767505-.490431.0510759-.979222.1020153-1.466648.1528181-1.9521611.1999337-3.879186.3972726-5.7806647.5918801-3.7894331.4906842-7.4970366.9077589-11.0751336 1.4784712-.8968466.1334257-1.7872725.2658954-2.6711412.3974091-.8840052.1321966-1.7640488.2546969-2.6292018.4155725-1.7365901.3015393-3.4470877.5985719-5.1310828.8909612-1.6910989.2709484-3.3376629.6175547-4.9649647.9356185-1.6278484.3228437-3.2290577.6404979-4.8033548.9526894-1.5681496.3464697-3.109387.6870671-4.6238488 1.0216555-1.5144617.3393683-3.0111642.6469165-4.4593699 1.0232944-11.6566836 2.7830929-21.4751391 5.7299293-29.3887005 8.3193707-.4987642.1519987-.9812717.3236631-1.458998.4876797-.4775896.1645629-.9480754.3266676-1.411321.486314-.9273107.3195661-1.82566.6291629-2.6949113.9286537-.8702076.2999004-1.711044.5895584-2.5225092.869247-.8081865.2844685-1.5751168.5745362-2.3203259.8452114-1.4895987.5464034-2.8610295 1.0495152-4.1123799 1.5085159-.626768.2316171-1.2238916.4450709-1.7910976.6609828-.56802563.2238329-1.10558715.4356478-1.61254797.6354449-2.03043888.7939989-3.56949051 1.3958483-4.60103488 1.7992664-1.03373013.3989113-1.55886012.6015763-1.55886012.6015763z" fill="#d9edf7" opacity=".5"/></g></g><g mask="url(#b)" opacity=".45"><g transform="translate(1190 22)"><path d="m28 39.500068c0 2.485297-1.3431851 4.499932-3 4.499932s-3-2.014635-3-4.499932 1.3431851-4.500068 3-4.500068 3 2.014771 3 4.500068m24 5.499932c0 1.6568699-1.5670324 3-3.4999395 3-1.9330281 0-3.5000605-1.3431301-3.5000605-3s1.5670324-3 3.5000605-3c1.9329071 0 3.4999395 1.3431301 3.4999395 3m9.4038817-32.6694276c-.9909714 2.0826846-2.8705967 3.175293-4.1983486 2.4405218-1.3276332-.7348993-1.6004801-3.0189314-.6095086-5.10161603.9910902-2.08268461 2.8707154-3.17542116 4.1984674-2.44052187 1.3276331.7348993 1.60048 3.0189315.6093898 5.1016161m105.5961183 284.1694956c0 2.485297-1.343156 4.499932-2.999934 4.499932-1.65691 0-3.000066-2.014635-3.000066-4.499932s1.343156-4.500068 3.000066-4.500068c1.656778 0 2.999934 2.014771 2.999934 4.500068m39.403882 314.830594c-.990972 2.082586-2.870597 3.175209-4.198349 2.440428-1.327633-.73491-1.60048-3.018974-.609509-5.101688.991091-2.082714 2.870716-3.175337 4.198468-2.440428 1.327633.73491 1.60048 3.018974.60939 5.101688" fill="#d9edf7"/><path d="m170 447.5c0 2.485335-1.343156 4.5-2.999934 4.5-1.65691 0-3.000066-2.014665-3.000066-4.5s1.343156-4.5 3.000066-4.5c1.656778 0 2.999934 2.014665 2.999934 4.5m45 30.5c0 1.65687-1.567032 3-3.49994 3-1.933028 0-3.50006-1.34313-3.50006-3s1.567032-3 3.50006-3c1.932908 0 3.49994 1.34313 3.49994 3m-11.596118-55.669338c-.990972 2.082586-2.870597 3.175209-4.198349 2.440428-1.327633-.73491-1.60048-3.018974-.609509-5.101688.991091-2.082714 2.870716-3.175337 4.198468-2.440428 1.327633.73491 1.60048 3.018974.60939 5.101688m-22.403882-117.830662c0 2.485335-1.343156 4.5-2.999934 4.5-1.65691 0-3.000066-2.014665-3.000066-4.5s1.343156-4.5 3.000066-4.5c1.656778 0 2.999934 2.014665 2.999934 4.5m67-21.5c0 1.65687-1.567032 3-3.49994 3-1.933028 0-3.50006-1.34313-3.50006-3s1.567032-3 3.50006-3c1.932908 0 3.49994 1.34313 3.49994 3m-58.596118 308.330662c-.990972 2.082586-2.870597 3.175209-4.198349 2.440428-1.327633-.73491-1.60048-3.018974-.609509-5.101688.991091-2.082714 2.870716-3.175337 4.198468-2.440428 1.327633.73491 1.60048 3.018974.60939 5.101688m-6.403882-140.830662c0 2.485335-1.343156 4.5-2.999934 4.5-1.65691 0-3.000066-2.014665-3.000066-4.5s1.343156-4.5 3.000066-4.5c1.656778 0 2.999934 2.014665 2.999934 4.5m-166.4868459 65.010222c2.6311423.923879 4.0866795 2.787681 3.2509722 4.162825-.8357073 1.375023-3.646066 1.740763-6.2772083.816763s-4.08667947-2.787802-3.2511085-4.162825c.8357073-1.375144 3.6462023-1.740763 6.2773446-.816763m19.6470621-18.263446c1.7011887.711346 2.3371811 2.744702 1.4201442 4.54152-.9169194 1.796694-3.0393224 2.676465-4.7406286 1.964995-1.7011887-.71147-2.3370637-2.744826-1.4201442-4.54152.9169194-1.796818 3.0393224-2.676589 4.7406286-1.964995" fill="#bce8f1"/><path d="m6.55495 2.10273333c1.638 1.918 1.799 4.3092.359375 5.34106667-1.4395 1.0316-3.93425.31293333-5.57225-1.60493333-1.638125-1.91813334-1.799-4.30946667-.359375-5.3412 1.4395-1.0316 3.93425-.31306667 5.57225 1.60506666" fill="#477893" mask="url(#d)" transform="translate(0 472)"/><g fill="#bce8f1"><path d="m27.2106082 198.51018c2.1049229.923981 3.269289 2.787746 2.6006544 4.162862-.6685076 1.375116-2.9168816 1.740728-5.0216776.816746-2.1050499-.923981-3.2694159-2.787625-2.6009083-4.162862.6686345-1.374995 2.9168816-1.740728 5.0219315-.816746m.5998252 27.332234c1.4519188 1.701952 1.5946078 3.823802.3185345 4.739437-1.2759442.915398-3.4873659.277802-4.9392847-1.42415-1.4520478-1.702071-1.5947368-3.824039-.3186635-4.739555 1.2760733-.915398 3.4874949-.277802 4.9394137 1.424268m111.4001036-143.3322314c2.104926.9238657 3.269294 2.7876401 2.600785 4.162884-.668635 1.3750026-2.917013 1.7407371-5.021811.8167508-2.104926-.9239863-3.269421-2.7877608-2.600786-4.162884.668509-1.3750026 2.916886-1.7407371 5.021812-.8167508m43.949662-22.2634754c1.701294.7114645 2.337159 2.7448039 1.420162 4.5414839-.91686 1.7968039-3.039375 2.6765678-4.740532 1.9651033-1.701432-.7114645-2.33716-2.7448039-1.420163-4.5416078.916724-1.79668 3.039101-2.6764439 4.740533-1.9649794m-43.349802-31.404287c1.451938 1.7019578 1.594629 3.8238147.318667 4.7394527-1.276219.9154013-3.487542.2776847-4.939481-1.4241548-1.451939-1.7020761-1.59463-3.8240514-.318539-4.739571 1.275962-.9154013 3.487414-.277803 4.939353 1.4242731m37.400124 236.6677628c2.104938.923865 3.269313 2.78764 2.6008 4.162884-.668512 1.375002-2.916903 1.740737-5.021842.81675-2.104938-.923986-3.269313-2.78776-2.6008-4.162884.668512-1.375002 2.916903-1.740737 5.021842-.81675m-133.4000422-16.667709c1.451927 1.701958 1.5944878 3.823816.3185363 4.739455-1.2760805.915283-3.4873857.277684-4.9394418-1.424274-1.451927-1.702077-1.5946168-3.823935-.3185363-4.739455 1.2759515-.91552 3.4873857-.277803 4.9394418 1.424274"/><path d="m177.210521 265.510183c2.104938.923865 3.269313 2.78764 2.6008 4.162884-.668512 1.375002-2.916903 1.740737-5.021842.81675-2.104938-.923986-3.269313-2.78776-2.6008-4.162884.668512-1.375002 2.916903-1.740737 5.021842-.81675"/><path d="m177.210521 265.510183c2.104938.923865 3.269313 2.78764 2.6008 4.162884-.668512 1.375002-2.916903 1.740737-5.021842.81675-2.104938-.923986-3.269313-2.78776-2.6008-4.162884.668512-1.375002 2.916903-1.740737 5.021842-.81675"/><path d="m177.210521 265.510183c2.104938.923865 3.269313 2.78764 2.6008 4.162884-.668512 1.375002-2.916903 1.740737-5.021842.81675-2.104938-.923986-3.269313-2.78776-2.6008-4.162884.668512-1.375002 2.916903-1.740737 5.021842-.81675"/><path d="m177.210521 265.510183c2.104938.923865 3.269313 2.78764 2.6008 4.162884-.668512 1.375002-2.916903 1.740737-5.021842.81675-2.104938-.923986-3.269313-2.78776-2.6008-4.162884.668512-1.375002 2.916903-1.740737 5.021842-.81675m-7.000067-226.0000547c2.105071.9239841 3.269449 2.787754 2.600808 4.1629946-.668515 1.3749992-2.916911 1.7406123-5.021728.8167488-2.104944-.9239841-3.269448-2.787754-2.600807-4.1629946.668514-1.3749992 2.916911-1.7406123 5.021727-.8167488"/></g></g></g></g></svg>